<svg width="256" height="256" viewBox="0 0 256 256" fill="none" xmlns="http://www.w3.org/2000/svg">
<rect width="256" height="256" fill="white"/>
<ellipse cx="131" cy="234.5" rx="71" ry="10.5" fill="#CDC6D0"/>
<g clip-path="url(#clip0_101_2)">
<path fill-rule="evenodd" clip-rule="evenodd" d="M158.77 172.528C156.114 171.67 153.462 170.22 150.973 168.085C143.064 161.305 141.36 128.971 141.36 128.971L141.396 128.925L155.887 109.511C155.887 109.511 156.986 111.052 158.734 113.599C160.521 116.211 162.985 119.876 165.637 124.018C171.772 133.616 178.907 145.78 180.929 153.316C184.595 166.97 171.581 176.656 158.77 172.528Z" fill="white"/>
<path fill-rule="evenodd" clip-rule="evenodd" d="M164.707 172.169C164.234 172.169 163.754 172.15 163.268 172.11C163.245 171.958 163.223 171.807 163.199 171.657C163.345 171.682 163.496 171.687 163.639 171.703L163.883 171.722C163.965 171.722 164.047 171.707 164.128 171.698C164.29 171.679 164.448 171.659 164.601 171.633C164.679 171.618 164.748 171.564 164.775 171.483C164.801 171.405 164.782 171.323 164.733 171.265L169.834 165.624C170.769 165.717 171.592 165.765 172.323 165.765C176.111 165.765 177.481 164.476 179.776 161.367C178.922 164.74 176.82 167.664 173.649 169.662C171.326 171.125 168.201 172.169 164.707 172.169Z" fill="#CDC6D0"/>
<path fill-rule="evenodd" clip-rule="evenodd" d="M164.772 174.79C160.026 174.791 154.836 173.156 150.103 169.1C141.853 162.028 140.098 130.384 140.027 129.04C139.988 128.303 140.554 127.674 141.291 127.636C142.033 127.592 142.656 128.163 142.695 128.899C143.161 137.735 145.713 161.817 151.842 167.071C159.946 174.017 168.655 172.808 173.649 169.662C179.074 166.245 181.37 160.114 179.64 153.664C176 140.092 155.01 110.581 154.798 110.285C154.369 109.684 154.509 108.85 155.109 108.421C155.71 107.993 156.545 108.132 156.973 108.733C157.848 109.959 178.456 138.935 182.221 152.971C184.266 160.596 181.527 167.857 175.073 171.923C172.27 173.689 168.67 174.79 164.772 174.79Z" fill="#371A45"/>
<path fill-rule="evenodd" clip-rule="evenodd" d="M155.202 148.052C154.697 148.052 154.214 147.765 153.988 147.277C153.678 146.607 153.97 145.814 154.639 145.504C155.209 145.239 168.715 139.066 177.546 142.507C178.234 142.774 178.574 143.548 178.307 144.236C178.039 144.924 177.264 145.264 176.577 144.996C168.808 141.97 155.892 147.868 155.761 147.929C155.58 148.012 155.389 148.052 155.202 148.052Z" fill="#371A45"/>
<path fill-rule="evenodd" clip-rule="evenodd" d="M169.505 152.696C169.427 155.919 166.75 158.468 163.527 158.39C160.304 158.311 157.755 155.635 157.833 152.412C157.911 149.189 160.588 146.639 163.811 146.718C167.034 146.796 169.584 149.473 169.505 152.696Z" fill="white"/>
<path fill-rule="evenodd" clip-rule="evenodd" d="M163.668 148.052C161.235 148.052 159.228 150 159.168 152.444C159.108 154.926 161.078 156.994 163.559 157.054C163.596 157.055 163.634 157.055 163.671 157.055C166.102 157.055 168.11 155.108 168.17 152.663C168.23 150.182 166.26 148.114 163.778 148.053C163.742 148.052 163.705 148.052 163.668 148.052ZM163.674 159.728C163.614 159.728 163.554 159.727 163.494 159.725C161.579 159.678 159.796 158.889 158.475 157.501C157.153 156.114 156.451 154.295 156.497 152.379C156.594 148.425 159.884 145.29 163.843 145.382C165.759 145.428 167.542 146.218 168.864 147.606C170.185 148.993 170.887 150.813 170.841 152.728C170.794 154.644 170.004 156.426 168.617 157.748C167.273 159.029 165.523 159.728 163.674 159.728Z" fill="#371A45"/>
<path fill-rule="evenodd" clip-rule="evenodd" d="M172.456 162.727L169.834 165.624L164.602 171.409C161.718 171.406 160.116 168.049 159.269 163.866C158.064 157.925 158.386 150.321 158.727 148.298C159.157 145.773 163.043 142.477 167.283 144.977C173.412 148.591 172.456 162.727 172.456 162.727Z" fill="white"/>
<path fill-rule="evenodd" clip-rule="evenodd" d="M164.733 171.265C164.707 171.235 164.673 171.211 164.634 171.198L164.602 171.187C164.06 171.004 163.599 170.788 163.23 170.45C163.143 170.368 163.059 170.284 162.977 170.198C162.915 169.795 162.854 169.401 162.793 169.012C163.168 168.298 163.506 167.565 163.807 166.818C163.878 166.64 163.948 166.463 164.016 166.285C164.151 166.141 164.282 165.993 164.407 165.841C165.033 165.93 165.705 165.981 166.421 165.981C167.462 165.981 168.598 165.874 169.834 165.624L164.733 171.265Z" fill="#CDC6D0"/>
<path fill-rule="evenodd" clip-rule="evenodd" d="M172.235 162.711C171.875 160.404 171.548 158.136 171.111 155.93C170.656 153.736 170.144 151.564 169.271 149.666C168.835 148.725 168.324 147.846 167.692 147.157C167.529 146.993 167.373 146.815 167.197 146.677C167.109 146.606 167.029 146.521 166.937 146.459L166.664 146.268C166.485 146.137 166.262 146.049 166.065 145.931C165.964 145.868 165.859 145.83 165.753 145.793L165.439 145.673C164.595 145.373 163.708 145.401 162.87 145.67C162.023 145.919 161.259 146.51 160.708 147.201C160.448 147.556 160.242 147.935 160.136 148.284C160.119 148.37 160.098 148.448 160.075 148.537L160.025 148.91C159.996 149.171 159.972 149.443 159.95 149.718C159.874 150.823 159.851 151.957 159.851 153.086C159.864 155.348 159.955 157.613 160.15 159.849C160.247 160.967 160.379 162.077 160.542 163.173C160.713 164.266 160.935 165.343 161.206 166.383C161.481 167.42 161.821 168.422 162.318 169.291C162.554 169.745 162.87 170.108 163.23 170.45C163.599 170.788 164.06 171.004 164.602 171.187L164.634 171.198C164.751 171.238 164.814 171.365 164.775 171.483C164.748 171.564 164.679 171.618 164.601 171.633C164.448 171.659 164.29 171.679 164.128 171.698C164.047 171.707 163.965 171.722 163.883 171.722L163.639 171.703C163.476 171.685 163.302 171.681 163.139 171.644L162.653 171.495C162.017 171.26 161.434 170.861 160.964 170.398C160.005 169.465 159.371 168.327 158.885 167.188C158.401 166.042 158.084 164.862 157.828 163.684C157.565 162.506 157.386 161.323 157.25 160.14C156.988 157.773 156.922 155.409 156.992 153.046C157.027 151.863 157.09 150.685 157.203 149.485C157.232 149.184 157.263 148.881 157.304 148.568C157.323 148.414 157.352 148.244 157.376 148.083C157.419 147.89 157.471 147.688 157.523 147.493C157.767 146.738 158.145 146.104 158.581 145.535C159.037 144.989 159.541 144.491 160.122 144.091C160.407 143.887 160.713 143.706 161.02 143.534C161.343 143.385 161.655 143.214 162.001 143.113C162.171 143.057 162.34 142.997 162.512 142.948L163.042 142.839C163.393 142.751 163.76 142.758 164.12 142.726C164.48 142.725 164.842 142.755 165.2 142.791C165.549 142.864 165.912 142.909 166.248 143.018L166.751 143.187C166.92 143.242 167.087 143.3 167.239 143.382C167.549 143.541 167.868 143.669 168.167 143.863L168.615 144.153C168.764 144.251 168.893 144.368 169.033 144.476C169.318 144.689 169.553 144.94 169.8 145.183C170.756 146.181 171.409 147.341 171.912 148.507C172.16 149.094 172.365 149.686 172.543 150.281C172.706 150.879 172.853 151.477 172.969 152.076C173.196 153.274 173.335 154.473 173.37 155.67C173.423 156.864 173.381 158.053 173.274 159.234C173.167 160.415 172.986 161.585 172.679 162.741C172.647 162.862 172.523 162.934 172.402 162.902C172.312 162.878 172.249 162.804 172.236 162.718L172.235 162.711Z" fill="#371A45"/>
<path fill-rule="evenodd" clip-rule="evenodd" d="M119.359 111.897L113.094 182.311C113.094 182.311 90.3207 183.062 83.8217 174.082C81.4182 170.754 80.3123 161.303 80.3549 150.976C80.4135 138.397 82.1707 124.511 85.3541 118.822C90.4646 109.69 111.524 110.64 119.359 111.897Z" fill="white"/>
<path fill-rule="evenodd" clip-rule="evenodd" d="M95.0207 179.034C90.7979 177.898 86.9394 176.109 84.9053 173.299C84.3321 172.506 83.8225 171.237 83.3873 169.58C84.9067 170.355 86.6314 170.749 88.3388 170.749C90.4523 170.749 92.5414 170.145 94.1865 168.916C95.265 168.11 96.0305 166.942 96.5603 165.566C96.0276 170.055 95.518 174.544 95.0207 179.034ZM95.7977 149.609C95.3633 149.24 94.8421 148.97 94.2697 148.833L94.5024 148.797C94.5024 148.797 95.0828 148.821 95.8418 149.486C95.8266 149.526 95.8122 149.567 95.7977 149.609Z" fill="#CDC6D0"/>
<path fill-rule="evenodd" clip-rule="evenodd" d="M111.665 183.666C106.377 183.666 88.6561 183.041 82.7411 174.865C79.5953 170.518 78.7864 157.895 79.0784 147.531C79.3676 137.236 80.8631 124.117 84.1896 118.169C89.7772 108.183 111.623 109.302 119.57 110.577C120.298 110.694 120.794 111.379 120.677 112.108C120.561 112.836 119.878 113.331 119.147 113.215C110.426 111.817 90.9785 111.507 86.5215 119.474C83.9757 124.026 82.1021 135.069 81.7493 147.606C81.4038 159.887 82.6724 170.212 84.9052 173.299C90.912 181.6 112.831 180.983 113.052 180.977C113.788 180.939 114.406 181.531 114.431 182.269C114.455 183.006 113.877 183.623 113.139 183.648C113.011 183.651 112.489 183.666 111.665 183.666Z" fill="#371A45"/>
<path fill-rule="evenodd" clip-rule="evenodd" d="M81.7046 148.847L93.6487 150.08C94.7149 150.19 95.5737 151.003 95.7349 152.063C96.3261 155.943 97.2253 164.978 93.3871 167.846C90.2008 170.226 85.1467 169.796 82.251 167.202C79.0113 164.302 78.9339 155.464 79.1089 151.095C79.1638 149.736 80.3521 148.708 81.7046 148.847Z" fill="white"/>
<path fill-rule="evenodd" clip-rule="evenodd" d="M88.3402 168.081C86.4522 168.081 84.5244 167.445 83.1423 166.207C82.2431 165.403 81.5448 163.819 81.0764 161.624C81.2123 161.794 81.3533 161.954 81.4986 162.103C83.3035 163.958 84.9985 164.6 86.4796 164.6C89.8126 164.6 92.0636 161.347 92.0636 161.347C92.0636 161.347 92.7987 163.048 93.4189 163.16C93.4904 163.173 93.5606 163.179 93.6285 163.179C94.0441 163.179 94.3781 162.937 94.6441 162.516C94.2783 164.559 93.5866 166.029 92.5869 166.776C91.4137 167.653 89.8907 168.081 88.3402 168.081Z" fill="#CDC6D0"/>
<path fill-rule="evenodd" clip-rule="evenodd" d="M81.4595 150.171C81.2152 150.171 80.9817 150.257 80.7945 150.42C80.5798 150.605 80.4555 150.864 80.4439 151.148C80.1367 158.79 81.1458 164.419 83.1422 166.207C85.6584 168.46 89.9839 168.721 92.5868 166.776C94.8566 165.08 95.5396 159.655 94.4142 152.264C94.3448 151.808 93.974 151.456 93.5114 151.408L81.5679 150.176C81.5318 150.172 81.4956 150.171 81.4595 150.171ZM88.3387 170.749C85.8088 170.749 83.2434 169.885 81.3597 168.198C77.9494 165.144 77.5272 157.182 77.7744 151.041C77.8149 150.027 78.2783 149.064 79.0445 148.4C79.8121 147.736 80.8313 147.413 81.8419 147.518L93.786 148.751C95.4587 148.923 96.8032 150.203 97.0562 151.862C97.8173 156.861 98.457 165.726 94.1865 168.916C92.5413 170.145 90.4523 170.749 88.3387 170.749Z" fill="#371A45"/>
<path fill-rule="evenodd" clip-rule="evenodd" d="M91.8113 154.308C91.7766 155.756 91.8792 157.198 91.8763 158.657C91.8792 160.114 91.8149 161.589 91.5286 163.066C91.2424 164.534 90.7234 166.036 89.728 167.325C89.2336 167.965 88.6221 168.536 87.9311 168.989C87.2408 169.445 86.4796 169.783 85.7004 170.024L85.6968 170.026C85.1236 170.204 84.5142 169.883 84.3364 169.309C84.1586 168.736 84.4795 168.128 85.0527 167.95C85.0961 167.936 85.146 167.925 85.1901 167.917C86.437 167.702 87.5971 167.172 88.4992 166.259C89.4086 165.354 90.0468 164.118 90.4791 162.795C90.9142 161.468 91.16 160.052 91.3356 158.625C91.5178 157.197 91.5966 155.743 91.8113 154.308Z" fill="#371A45"/>
<path fill-rule="evenodd" clip-rule="evenodd" d="M92.25 117.376C93.8996 117.405 95.5353 117.472 97.1784 117.558C98.8199 117.644 100.461 117.759 102.105 117.911C103.748 118.06 105.392 118.246 107.041 118.507C108.692 118.774 110.34 119.07 112.026 119.624C112.728 119.854 113.11 120.61 112.88 121.312C112.65 122.013 111.894 122.395 111.193 122.165C111.159 122.154 111.127 122.142 111.095 122.128L111.088 122.125C109.704 121.546 108.15 121.129 106.6 120.756C105.043 120.383 103.454 120.077 101.857 119.807C100.259 119.533 98.6508 119.293 97.0381 119.082C95.4262 118.872 93.8034 118.68 92.1901 118.526H92.185C91.8684 118.495 91.6356 118.214 91.666 117.898C91.6949 117.596 91.953 117.372 92.25 117.376Z" fill="#371A45"/>
<path fill-rule="evenodd" clip-rule="evenodd" d="M175.565 110.656V110.586C175.602 110.59 175.602 110.612 175.565 110.656Z" fill="white"/>
<path fill-rule="evenodd" clip-rule="evenodd" d="M175.565 110.656V110.586C175.602 110.59 175.602 110.612 175.565 110.656Z" fill="white"/>
<path fill-rule="evenodd" clip-rule="evenodd" d="M175.565 110.586C175.602 110.59 175.602 110.612 175.565 110.656V110.586Z" fill="white"/>
<path fill-rule="evenodd" clip-rule="evenodd" d="M177.992 227.108C178.089 235.631 168.806 236.178 157.431 236.185C149.294 236.189 143.191 234.817 140.152 232.201C135.17 227.918 136.444 203.722 131.045 159.629L159.432 157.05C159.432 157.05 161.089 165.885 162.851 178.461C164.417 189.64 166.067 203.779 166.715 217.296C166.715 217.296 176.925 220.074 177.916 226.214C177.963 226.503 177.988 226.8 177.992 227.108Z" fill="white"/>
<path fill-rule="evenodd" clip-rule="evenodd" d="M157.43 234.848C157.417 234.848 157.404 234.848 157.39 234.848C149.578 234.848 143.766 233.548 141.021 231.188C138.453 228.979 137.668 218.597 136.48 202.881C136.082 197.611 135.638 191.749 135.066 185.239C136.52 185.085 137.969 184.866 139.407 184.582C143.458 183.775 147.438 182.448 151.114 180.453C154.747 178.483 158.087 175.817 160.618 172.449C160.94 174.585 161.276 176.891 161.615 179.332C155.883 183.27 150.682 185.519 145.242 191.801C138.259 199.857 139.827 227.47 153.31 229.257C156.946 229.738 160.452 230.021 163.667 230.021C169.073 230.021 173.658 229.221 176.657 227.216C176.662 229.096 176.145 230.536 175.078 231.616C172.136 234.593 165.051 234.843 157.43 234.848Z" fill="#CDC6D0"/>
<path fill-rule="evenodd" clip-rule="evenodd" d="M157.39 237.519C148.816 237.519 142.554 236.031 139.279 233.214C135.872 230.284 135.184 221.193 133.815 203.083C132.951 191.637 131.874 177.394 129.718 159.792C129.628 159.06 130.149 158.393 130.881 158.304C131.614 158.213 132.281 158.735 132.37 159.467C134.533 177.131 135.613 191.409 136.48 202.881C137.668 218.597 138.453 228.979 141.021 231.188C143.766 233.548 149.578 234.848 157.39 234.848C157.404 234.848 157.417 234.848 157.43 234.848C165.051 234.843 172.136 234.593 175.078 231.616C176.162 230.518 176.679 229.049 176.657 227.124C176.603 222.414 169.208 219.362 166.363 218.584L165.428 218.328L165.38 217.359C164.024 189.065 158.176 157.611 158.117 157.296C157.981 156.571 158.459 155.873 159.185 155.737C159.91 155.599 160.608 156.079 160.744 156.804C160.803 157.117 166.556 188.061 168.003 216.294C170.876 217.248 179.254 220.586 179.329 227.093C179.359 229.731 178.568 231.885 176.979 233.494C173.308 237.209 165.954 237.515 157.431 237.519C157.417 237.519 157.403 237.519 157.39 237.519Z" fill="#371A45"/>
<path fill-rule="evenodd" clip-rule="evenodd" d="M164.041 160.168C163.835 161.963 163.473 163.656 162.923 165.23C161.838 168.324 160.17 171.023 158.068 173.331C141.859 191.142 99.7502 186.044 98.4332 163.663C98.3863 162.896 98.3899 162.104 98.4441 161.29C98.6364 158.414 98.9038 155.371 99.2074 152.217C101.056 133.176 104.371 109.977 101.679 94.156C107.37 99.8469 145.608 102.339 145.836 98.7467C146.074 95.2012 115.474 80.1221 128.792 82.2349C138.596 84.308 152.945 86.16 155.745 94.156C155.915 95.9175 156.744 98.1894 157.334 99.7999L159.862 124.749C161.509 136.761 165.21 150.039 164.041 160.168Z" fill="white"/>
<path fill-rule="evenodd" clip-rule="evenodd" d="M160.524 124.658C161.716 128.513 162.473 132.416 163.181 136.37C163.904 140.317 164.626 144.288 165.115 148.325C165.358 150.344 165.544 152.381 165.608 154.438C165.672 156.494 165.634 158.572 165.367 160.657C165.246 161.699 165.048 162.742 164.797 163.776L164.593 164.55C164.519 164.807 164.433 165.062 164.352 165.318C164.195 165.834 164.004 166.323 163.807 166.818C163.015 168.789 161.955 170.654 160.688 172.355C158.148 175.767 154.78 178.465 151.114 180.453C147.438 182.448 143.458 183.775 139.407 184.582C135.349 185.383 131.206 185.666 127.084 185.463C122.963 185.255 118.854 184.563 114.896 183.278C110.951 181.984 107.117 180.091 103.875 177.296C102.263 175.899 100.809 174.272 99.6649 172.42C98.5148 170.574 97.6857 168.507 97.2578 166.365C97.0468 165.293 96.9217 164.207 96.8964 163.123C96.8856 162.581 96.8863 162.039 96.9188 161.501C96.9456 160.956 96.9882 160.482 97.0222 159.97C97.1696 157.957 97.3388 155.949 97.5274 153.946C97.9004 149.938 98.3298 145.947 98.7512 141.959C99.5969 133.987 100.434 126.03 100.892 118.073C101.11 114.095 101.243 110.118 101.173 106.159C101.108 102.202 100.842 98.2567 100.206 94.4061L99.4473 89.811L102.735 93.0992C102.977 93.3421 103.348 93.6023 103.755 93.8329C104.165 94.0671 104.617 94.2818 105.086 94.4791C106.026 94.8752 107.032 95.2084 108.054 95.5055C110.105 96.0983 112.23 96.5544 114.37 96.944C118.655 97.7152 123.014 98.2263 127.376 98.5624C129.559 98.7272 131.744 98.8458 133.925 98.9C136.103 98.9513 138.285 98.9491 140.418 98.8089C141.477 98.7352 142.543 98.6296 143.495 98.428C143.73 98.3774 143.957 98.3203 144.156 98.2574C144.354 98.1959 144.528 98.1179 144.596 98.0767C144.627 98.0608 144.617 98.0506 144.548 98.1309C144.516 98.1699 144.461 98.2436 144.422 98.3463C144.395 98.4034 144.383 98.4619 144.367 98.5263C144.353 98.5913 144.351 98.6636 144.35 98.6983C144.354 98.8783 144.389 98.9195 144.381 98.9101C144.377 98.9 144.349 98.8479 144.309 98.7872C144.129 98.5219 143.777 98.1583 143.414 97.8287C143.045 97.4919 142.641 97.1587 142.226 96.8319C141.394 96.1771 140.515 95.5431 139.622 94.92C136.037 92.4212 132.274 90.1059 128.598 87.5196C127.677 86.8626 126.764 86.1983 125.854 85.4125C125.626 85.2145 125.399 85.007 125.169 84.775C124.938 84.5365 124.707 84.2929 124.461 83.93C124.34 83.7421 124.207 83.531 124.095 83.179C124.068 83.093 124.043 82.9809 124.026 82.8754C124.012 82.7482 123.998 82.6376 124.009 82.4822C124.017 82.2017 124.126 81.841 124.309 81.5779C124.4 81.4362 124.496 81.3357 124.601 81.236C124.696 81.15 124.8 81.0726 124.89 81.0162C125.073 80.9049 125.237 80.8363 125.375 80.79C125.655 80.6975 125.88 80.6621 126.079 80.6396C126.865 80.5645 127.451 80.6331 128.059 80.6953C128.364 80.7329 128.628 80.7683 128.963 80.8218C129.267 80.8767 129.554 80.9447 129.817 80.9967L133.057 81.6545C137.396 82.5328 141.798 83.4096 146.109 84.9319C148.257 85.7046 150.397 86.6378 152.374 87.9967C153.357 88.6783 154.298 89.4742 155.11 90.4269C155.923 91.376 156.598 92.4927 157.019 93.7086L157.073 93.864L157.089 94.0266C157.169 94.8398 157.394 95.739 157.663 96.6288C157.934 97.5237 158.255 98.4222 158.589 99.3402C158.841 100.034 158.484 100.8 157.79 101.053C157.097 101.305 156.332 100.952 156.08 100.259C155.74 99.3373 155.396 98.3918 155.094 97.4124C154.796 96.4286 154.523 95.4224 154.403 94.2839L154.472 94.6013C153.861 92.8484 152.499 91.3839 150.825 90.2454C149.147 89.1005 147.198 88.2439 145.186 87.5348C141.141 86.1245 136.835 85.2759 132.508 84.4244L129.243 83.7775C128.964 83.7225 128.712 83.6647 128.472 83.6221C128.262 83.5903 127.977 83.5512 127.734 83.5238C127.243 83.4681 126.721 83.4378 126.405 83.4746C126.329 83.4811 126.28 83.4985 126.299 83.4927C126.304 83.4891 126.343 83.4782 126.406 83.4378C126.476 83.3951 126.578 83.317 126.69 83.158C126.794 83.0077 126.857 82.7843 126.862 82.6419C126.864 82.5559 126.865 82.514 126.854 82.4547C126.851 82.4171 126.838 82.3745 126.833 82.3535C126.804 82.2653 126.808 82.2978 126.839 82.3398C126.903 82.4359 127.047 82.6014 127.203 82.7576C127.363 82.9173 127.544 83.0821 127.734 83.2462C128.5 83.904 129.378 84.5422 130.26 85.1646C133.829 87.6541 137.615 89.9621 141.3 92.505C142.223 93.144 143.141 93.7982 144.05 94.5066C144.505 94.8622 144.957 95.2301 145.407 95.6371C145.857 96.0542 146.303 96.4669 146.759 97.1088C146.873 97.2772 146.988 97.463 147.098 97.7051C147.202 97.9473 147.32 98.2588 147.323 98.7164C147.325 98.8197 147.311 98.9607 147.286 99.0937C147.262 99.2274 147.22 99.3496 147.174 99.4732C147.078 99.7016 146.952 99.8946 146.829 100.038C146.581 100.33 146.348 100.488 146.143 100.617C145.736 100.857 145.391 100.983 145.063 101.089C144.736 101.194 144.425 101.271 144.12 101.337C142.907 101.592 141.765 101.697 140.62 101.78C138.339 101.931 136.094 101.932 133.852 101.882C131.611 101.827 129.379 101.708 127.151 101.54C122.695 101.196 118.258 100.677 113.836 99.883C111.626 99.4797 109.421 99.0099 107.221 98.3745C106.121 98.0543 105.023 97.6936 103.925 97.2317C103.374 96.9996 102.825 96.7416 102.274 96.4271C101.724 96.1105 101.168 95.7491 100.623 95.2121L103.151 93.9052C103.825 97.9697 104.097 102.049 104.167 106.107C104.24 110.168 104.106 114.211 103.888 118.241C103.427 126.299 102.589 134.3 101.747 142.276C101.327 146.264 100.902 150.247 100.533 154.225C100.347 156.214 100.18 158.202 100.036 160.188C100.004 160.676 99.9576 161.201 99.9367 161.658C99.9085 162.12 99.9092 162.581 99.9179 163.042C99.9403 163.962 100.047 164.874 100.223 165.77C100.58 167.56 101.257 169.278 102.224 170.838C103.183 172.403 104.424 173.808 105.835 175.039C108.671 177.504 112.159 179.264 115.815 180.473C119.484 181.677 123.349 182.346 127.233 182.553C131.12 182.756 135.038 182.5 138.851 181.76C142.661 181.014 146.378 179.781 149.762 177.957C153.139 176.138 156.178 173.704 158.445 170.676C159.577 169.167 160.52 167.519 161.228 165.771C161.404 165.336 161.58 164.89 161.715 164.448C161.785 164.225 161.861 164.006 161.927 163.781L162.107 163.102C162.332 162.19 162.513 161.259 162.627 160.309C162.876 158.416 162.921 156.473 162.867 154.522C162.813 152.571 162.642 150.609 162.412 148.646C161.95 144.72 161.253 140.792 160.543 136.85C159.817 132.915 159.104 128.93 159.201 124.84C159.209 124.466 159.519 124.17 159.893 124.179C160.191 124.186 160.439 124.385 160.523 124.655L160.524 124.658Z" fill="#371A45"/>
<path fill-rule="evenodd" clip-rule="evenodd" d="M139.22 201.872C136.683 201.872 135.045 201.734 134.832 201.714C134.097 201.649 133.555 200.999 133.621 200.265C133.686 199.531 134.336 198.991 135.069 199.054C135.238 199.067 152.046 200.47 164.246 193.674C164.89 193.316 165.704 193.546 166.063 194.191C166.423 194.836 166.191 195.65 165.546 196.009C156.436 201.084 145.272 201.872 139.22 201.872Z" fill="#371A45"/>
<path fill-rule="evenodd" clip-rule="evenodd" d="M166.451 218.605C165.988 218.492 165.426 218.387 164.899 218.307C164.363 218.223 163.82 218.16 163.277 218.106C162.189 218.006 161.093 217.973 160 218.006C158.904 218.029 157.816 218.15 156.74 218.337C155.657 218.512 154.613 218.83 153.578 219.188L153.542 219.2C153.194 219.321 152.814 219.136 152.693 218.788C152.58 218.462 152.738 218.107 153.044 217.964C154.115 217.469 155.217 217.014 156.361 216.71C157.501 216.394 158.663 216.149 159.836 216.008C161.009 215.858 162.19 215.777 163.374 215.771C163.966 215.771 164.559 215.781 165.154 215.815C165.451 215.832 165.749 215.851 166.049 215.879C166.354 215.907 166.637 215.935 166.979 215.985C167.71 216.092 168.216 216.772 168.11 217.503C168.003 218.233 167.324 218.74 166.593 218.633C166.551 218.627 166.511 218.619 166.471 218.61L166.451 218.605Z" fill="#371A45"/>
<path fill-rule="evenodd" clip-rule="evenodd" d="M132.727 175.243C132.727 175.243 126.387 207.968 123.414 223.275C120.877 236.334 111.99 237.185 92.4762 236.456C85.6114 236.2 80.3774 233.835 80.9065 228.218C81.6177 220.673 92.2652 217.816 92.2652 217.816C92.2652 217.816 96.094 179.752 98.7056 158.971L132.727 175.243Z" fill="white"/>
<path fill-rule="evenodd" clip-rule="evenodd" d="M100.602 235.151C99.4929 235.151 98.3812 235.135 97.2673 235.112C96.0363 235.087 94.8031 235.05 93.5685 235.008L92.6425 234.975C92.3375 234.961 92.0484 234.951 91.7527 234.931C91.1636 234.897 90.581 234.837 90.0027 234.762C88.8491 234.611 87.7207 234.371 86.6712 234.011C85.6252 233.653 84.6574 233.165 83.9136 232.522C83.1647 231.881 82.6645 231.096 82.4505 230.176C82.2698 229.425 82.272 228.553 82.4252 227.718C84.2186 229.038 86.9502 229.703 89.5842 229.852C92.4734 230.015 95.1154 230.105 97.5246 230.105C112.707 230.105 118.749 226.544 120.521 215.356C122.077 205.537 126.668 192.272 129.749 183.945C129.331 185.823 128.948 187.709 128.577 189.597L122.097 222.447C121.976 223.069 121.861 223.626 121.721 224.201C121.582 224.77 121.419 225.328 121.239 225.874C120.52 228.065 119.39 230.026 117.745 231.427C116.106 232.833 113.989 233.708 111.716 234.224C109.442 234.747 107.034 234.965 104.611 235.072C103.282 235.128 101.944 235.151 100.602 235.151Z" fill="#CDC6D0"/>
<path fill-rule="evenodd" clip-rule="evenodd" d="M133.382 175.369C132.995 180.347 132.142 185.235 131.212 190.108L124.945 223C124.833 223.596 124.703 224.255 124.554 224.886C124.403 225.523 124.225 226.159 124.02 226.791C123.612 228.053 123.078 229.305 122.366 230.485C121.656 231.664 120.757 232.764 119.699 233.684C118.644 234.608 117.442 235.342 116.198 235.897C114.954 236.455 113.671 236.849 112.39 237.143C109.824 237.728 107.267 237.945 104.738 238.056C102.209 238.161 99.701 238.145 97.2036 238.09C95.9545 238.062 94.7091 238.024 93.4643 237.98L92.5319 237.946C92.2167 237.931 91.8864 237.919 91.564 237.897C90.9149 237.858 90.2629 237.791 89.6109 237.706C88.3076 237.532 86.9964 237.259 85.6996 236.812C84.4101 236.355 83.1148 235.718 81.9835 234.728C81.4219 234.233 80.9094 233.648 80.5017 232.984C80.0947 232.32 79.8005 231.582 79.6307 230.833C79.4594 230.084 79.4088 229.327 79.4413 228.598C79.4709 227.872 79.5902 227.148 79.7825 226.445C80.1706 225.037 80.8891 223.751 81.7674 222.666C82.6485 221.575 83.6815 220.666 84.7715 219.889C85.863 219.109 87.0224 218.469 88.2086 217.914C88.8028 217.638 89.4049 217.385 90.0164 217.153C90.3222 217.038 90.6301 216.928 90.9424 216.824C91.2619 216.718 91.5539 216.625 91.9182 216.526H91.9189L90.9359 217.683C91.9312 207.862 92.9547 198.048 94.0137 188.235C95.077 178.422 96.1613 168.613 97.38 158.805C97.471 158.073 98.1389 157.553 98.8712 157.644C99.6034 157.735 100.123 158.403 100.032 159.135L100.031 159.138C98.8162 168.913 97.7327 178.717 96.6701 188.521C95.6119 198.326 94.5891 208.139 93.5945 217.95L93.5034 218.854L92.6114 219.106C92.3779 219.174 92.0801 219.272 91.8127 219.367C91.538 219.464 91.2633 219.566 90.9908 219.675C90.4458 219.891 89.908 220.128 89.3818 220.384C88.3293 220.894 87.3231 221.485 86.4001 222.154C84.5568 223.484 83.0613 225.214 82.5415 227.2C82.2813 228.182 82.2322 229.267 82.4505 230.176C82.6644 231.096 83.1646 231.881 83.9135 232.522C84.6573 233.165 85.6252 233.653 86.6711 234.011C87.7207 234.371 88.849 234.611 90.0027 234.762C90.5809 234.837 91.1636 234.897 91.7527 234.931C92.0483 234.951 92.3374 234.961 92.6425 234.975L93.5684 235.008C94.803 235.05 96.0362 235.087 97.2672 235.112C99.7292 235.164 102.184 235.175 104.611 235.072C107.034 234.965 109.442 234.747 111.716 234.224C113.989 233.708 116.106 232.833 117.745 231.427C119.39 230.026 120.519 228.065 121.239 225.874C121.419 225.328 121.582 224.77 121.721 224.201C121.861 223.626 121.976 223.069 122.097 222.447L128.577 189.597C129.534 184.729 130.57 179.877 132.071 175.115C132.182 174.761 132.56 174.564 132.914 174.676C133.218 174.771 133.406 175.065 133.382 175.369Z" fill="#371A45"/>
<path fill-rule="evenodd" clip-rule="evenodd" d="M116.572 201.195C100.568 201.195 94.1475 197.595 93.828 197.41C93.1905 197.04 92.9736 196.222 93.3437 195.584C93.7131 194.948 94.527 194.73 95.1645 195.096C95.2701 195.156 104.381 200.133 127.942 197.971C128.674 197.902 129.327 198.445 129.395 199.18C129.462 199.914 128.921 200.565 128.186 200.632C123.854 201.03 119.993 201.195 116.572 201.195Z" fill="#371A45"/>
<path fill-rule="evenodd" clip-rule="evenodd" d="M91.5966 216.48C92.5616 216.328 93.4406 216.246 94.3593 216.177C95.2694 216.113 96.1787 216.079 97.0888 216.074C98.9081 216.063 100.729 216.175 102.535 216.426C104.34 216.684 106.133 217.089 107.864 217.7C108.729 218.004 109.574 218.373 110.397 218.783C111.217 219.203 112.002 219.688 112.754 220.22C113.055 220.434 113.126 220.851 112.912 221.152C112.708 221.441 112.316 221.518 112.019 221.336L112.001 221.324C111.28 220.88 110.532 220.48 109.754 220.142C108.972 219.812 108.173 219.521 107.354 219.291C105.716 218.827 104.022 218.553 102.316 218.418C100.608 218.29 98.8857 218.291 97.1726 218.411C96.316 218.47 95.4616 218.556 94.613 218.669C93.7745 218.783 92.8985 218.927 92.1258 219.099L92.0983 219.106C91.3776 219.268 90.6627 218.814 90.5008 218.094C90.3396 217.373 90.7928 216.658 91.5128 216.496C91.5395 216.491 91.5699 216.485 91.5966 216.48Z" fill="#371A45"/>
<path fill-rule="evenodd" clip-rule="evenodd" d="M132.537 182.543C132.898 180.167 133.195 177.779 133.382 175.369C133.403 175.115 133.275 174.869 133.056 174.739L133.068 174.68C135.401 174.564 137.724 174.33 140.004 173.971L130.748 174.296L120.309 169.304C120.212 168.889 120.153 168.46 120.137 168.02L120.05 165.563C117.635 165.842 115.428 165.979 113.427 166.012L100.077 159.628C100.109 159.198 100.142 158.768 100.177 158.339C101.429 158.807 103.465 159.418 106.337 159.834C108.262 160.112 110.562 160.303 113.255 160.303C115.141 160.303 117.22 160.209 119.495 159.987L119.557 161.741C119.559 161.793 119.561 161.845 119.564 161.896L119.58 162.346C119.653 164.469 120.554 166.441 122.118 167.899C123.611 169.291 125.529 170.048 127.545 170.048C127.641 170.048 127.737 170.047 127.833 170.043L128.396 170.023C128.411 170.023 128.425 170.022 128.44 170.021L158.069 168.981C158.117 168.98 158.165 168.978 158.212 168.975L158.669 168.959C159.006 168.949 159.342 168.916 159.673 168.861C159.294 169.485 158.883 170.092 158.445 170.676C156.178 173.704 153.139 176.138 149.762 177.957C146.378 179.781 142.661 181.014 138.851 181.76C136.77 182.164 134.658 182.424 132.537 182.543Z" fill="#CDC6D0"/>
<path fill-rule="evenodd" clip-rule="evenodd" d="M132.306 184.004C132.386 183.518 132.462 183.03 132.537 182.543C134.658 182.424 136.77 182.164 138.851 181.76C142.661 181.014 146.378 179.781 149.762 177.957C153.139 176.138 156.178 173.704 158.445 170.676C158.883 170.092 159.294 169.485 159.673 168.861C159.841 168.833 160.008 168.799 160.173 168.76L160.158 168.649C160.711 168.488 161.241 168.274 161.742 168.011C161.286 168.911 160.778 169.776 160.224 170.599C160.119 170.751 160.014 170.903 159.905 171.052C159.808 171.192 159.707 171.33 159.606 171.467C159.468 171.652 159.326 171.833 159.186 172.014C159.07 172.158 158.954 172.303 158.835 172.448C158.781 172.513 158.727 172.575 158.672 172.64C158.549 172.788 158.426 172.933 158.299 173.074C158.223 173.161 158.144 173.247 158.068 173.331C151.964 180.036 142.192 183.495 132.306 184.004ZM100.077 159.628L99.9764 159.579C99.9952 159.433 100.013 159.285 100.031 159.138L100.032 159.135C100.075 158.787 99.9808 158.454 99.7914 158.19C99.9099 158.238 100.039 158.288 100.177 158.339C100.142 158.768 100.109 159.198 100.077 159.628Z" fill="#371A45"/>
<path fill-rule="evenodd" clip-rule="evenodd" d="M126.773 174.431C123.665 174.432 121.004 172.251 120.309 169.304L130.748 174.296L127.011 174.427C126.932 174.43 126.852 174.431 126.773 174.431ZM112.478 166.02C105.795 166.02 101.53 164.849 99.4292 164.069C99.6092 162.571 99.7913 161.076 99.9764 159.579L100.077 159.628L113.427 166.012C113.105 166.017 112.789 166.02 112.478 166.02Z" fill="#CDC6D0"/>
<path fill-rule="evenodd" clip-rule="evenodd" d="M131.129 184.05L133.056 174.739C133.275 174.869 133.403 175.115 133.382 175.369C133.195 177.779 132.898 180.167 132.537 182.543C132.462 183.03 132.386 183.518 132.306 184.004C131.914 184.024 131.522 184.039 131.129 184.05ZM99.4293 164.069C99.0129 163.914 98.6819 163.775 98.4332 163.663C98.3863 162.896 98.3899 162.104 98.4441 161.29C98.5221 160.121 98.6125 158.924 98.713 157.704C98.8546 157.779 99.2117 157.959 99.7914 158.19C99.9808 158.454 100.076 158.787 100.032 159.135L100.031 159.138C100.013 159.285 99.9953 159.433 99.9765 159.579C99.7914 161.076 99.6093 162.571 99.4293 164.069Z" fill="#371A45"/>
<path fill-rule="evenodd" clip-rule="evenodd" d="M158.629 167.624L127.786 168.707C124.136 168.836 121.041 165.953 120.912 162.298L120.337 145.885C120.225 142.686 122.422 139.917 125.423 139.192C125.848 139.087 126.291 139.028 126.745 139.011L157.583 137.929C161.238 137.8 164.333 140.682 164.457 144.337L165.037 160.75C165.166 164.405 162.279 167.494 158.629 167.624Z" fill="white"/>
<path fill-rule="evenodd" clip-rule="evenodd" d="M135.421 166.981C134.086 166.981 132.819 166.473 131.828 165.55C130.787 164.579 130.187 163.268 130.138 161.858L129.715 149.81C130.073 151.578 130.518 153.205 131.142 154.66C131.557 157.375 133.343 159.503 135.555 159.952C137.836 161.341 140.99 162.113 145.438 162.113C146.96 162.113 148.633 162.023 150.475 161.835C156.494 161.224 160.766 159.496 163.604 158.041L163.679 160.192C163.734 161.763 163.17 163.267 162.088 164.427C161.285 165.288 160.274 165.879 159.163 166.148L135.627 166.978C135.557 166.98 135.489 166.981 135.421 166.981Z" fill="#CDC6D0"/>
<path fill-rule="evenodd" clip-rule="evenodd" d="M157.237 139.28C157.167 139.28 157.097 139.281 157.026 139.284L127.397 140.324C124.138 140.439 121.579 143.184 121.693 146.443L122.228 161.648C122.282 163.219 122.952 164.679 124.112 165.76C125.272 166.842 126.779 167.405 128.346 167.351L157.975 166.311C159.547 166.255 161.007 165.587 162.088 164.427C163.17 163.267 163.734 161.763 163.679 160.192L163.145 144.987C163.09 143.417 162.421 141.956 161.262 140.875C160.153 139.842 158.731 139.28 157.237 139.28ZM128.134 170.027C125.962 170.027 123.897 169.213 122.29 167.715C120.608 166.147 119.638 164.026 119.557 161.741L119.023 146.537C118.857 141.805 122.572 137.82 127.303 137.654L156.932 136.613C159.217 136.532 161.401 137.353 163.083 138.921C164.765 140.488 165.736 142.609 165.816 144.893L166.35 160.098C166.517 164.83 162.802 168.815 158.069 168.981L128.44 170.021C128.338 170.025 128.236 170.027 128.134 170.027Z" fill="#371A45"/>
<path fill-rule="evenodd" clip-rule="evenodd" d="M159.862 167.459C159.465 167.556 159.056 167.611 158.629 167.624L127.786 168.707C125.111 168.799 122.736 167.28 121.607 165.016C121.195 164.194 120.949 163.273 120.917 162.298L120.337 145.885C120.208 142.231 123.095 139.14 126.745 139.011L133.41 138.779C130.358 139.466 128.114 142.256 128.226 145.488L128.534 154.354L128.801 161.905C128.93 165.556 132.025 168.443 135.675 168.313L159.862 167.459Z" fill="white"/>
<path fill-rule="evenodd" clip-rule="evenodd" d="M127.532 167.377C126.199 167.377 124.931 166.868 123.941 165.945C122.899 164.974 122.298 163.663 122.25 162.254L122.16 159.679C122.869 159.584 123.595 159.478 124.338 159.358C124.338 159.358 124.956 158.413 125.425 157.034C125.426 157.033 125.426 157.031 125.427 157.03C125.427 157.029 125.428 157.028 125.428 157.026C125.489 156.846 125.548 156.658 125.603 156.464C126.169 156.382 126.721 156.099 127.248 155.68L127.467 161.95C127.538 163.976 128.362 165.864 129.795 167.3L127.739 167.372C127.67 167.375 127.6 167.377 127.532 167.377Z" fill="#CDC6D0"/>
<path fill-rule="evenodd" clip-rule="evenodd" d="M128.633 140.28L126.793 140.345C123.866 140.449 121.569 142.913 121.674 145.837L122.25 162.254C122.298 163.663 122.899 164.974 123.941 165.945C124.982 166.915 126.33 167.428 127.739 167.372L129.795 167.3C128.362 165.864 127.538 163.976 127.467 161.95L126.891 145.537C126.822 143.576 127.476 141.728 128.633 140.28ZM127.546 170.048C125.529 170.048 123.611 169.291 122.118 167.899C120.554 166.441 119.653 164.469 119.58 162.346L119.003 145.932C118.847 141.536 122.298 137.831 126.698 137.674L133.361 137.442L133.702 140.08C131.213 140.642 129.472 142.898 129.562 145.443L130.138 161.858C130.187 163.268 130.787 164.579 131.828 165.55C132.869 166.521 134.217 167.033 135.627 166.978L159.817 166.125L160.173 168.76C159.681 168.877 159.176 168.944 158.669 168.959L127.833 170.043C127.737 170.047 127.641 170.048 127.546 170.048Z" fill="#371A45"/>
<path fill-rule="evenodd" clip-rule="evenodd" d="M140.679 153.403C140.697 154.01 139.988 158.936 139.988 158.936C139.988 158.936 138.435 158.982 136.529 159.037C134.147 159.107 132.144 156.698 132.055 153.656C131.966 150.615 133.824 148.092 136.205 148.022C137.813 147.975 139.664 147.921 139.664 147.921C139.664 147.921 140.651 152.414 140.679 153.403Z" fill="#22A7F0"/>
<path fill-rule="evenodd" clip-rule="evenodd" d="M136.426 158.037C134.644 158.037 133.129 156.078 133.056 153.627C132.983 151.142 134.41 149.077 136.235 149.024L137.213 148.995C136.134 150.024 135.459 151.692 135.513 153.554C135.518 153.695 135.526 153.833 135.538 153.971C135.685 155.657 136.425 157.115 137.477 158.007L136.499 158.035C136.475 158.036 136.451 158.037 136.426 158.037Z" fill="#198A54"/>
<path fill-rule="evenodd" clip-rule="evenodd" d="M138.86 148.946L136.235 149.024C134.41 149.077 132.983 151.142 133.056 153.627C133.129 156.111 134.685 158.09 136.499 158.035L139.115 157.959C139.409 155.87 139.678 153.774 139.678 153.429C139.66 152.867 139.221 150.642 138.86 148.946ZM136.429 160.041C133.556 160.041 131.158 157.222 131.053 153.685C130.948 150.097 133.246 147.107 136.175 147.02L140.465 146.894L140.643 147.705C140.811 148.471 141.651 152.343 141.681 153.374C141.7 154.017 141.149 157.903 140.979 159.078L140.859 159.913L136.559 160.039C136.515 160.04 136.473 160.041 136.429 160.041Z" fill="#371A45"/>
<path fill-rule="evenodd" clip-rule="evenodd" d="M144.138 153.301C144.227 156.343 142.369 158.866 139.988 158.936C137.606 159.005 135.603 156.596 135.513 153.554C135.424 150.513 137.282 147.99 139.664 147.921C142.046 147.851 144.049 150.26 144.138 153.301Z" fill="#27BD75"/>
<path fill-rule="evenodd" clip-rule="evenodd" d="M141.027 158.744C141.027 158.743 141.028 158.742 141.028 158.742C142.55 158.208 143.716 156.631 144.046 154.659C143.717 156.632 142.552 158.21 141.027 158.744Z" fill="#B9AFBE"/>
<path fill-rule="evenodd" clip-rule="evenodd" d="M137.477 158.007C136.425 157.115 135.685 155.657 135.538 153.971C135.687 155.658 136.426 157.115 137.478 158.007H137.477Z" fill="#2E568D"/>
<path fill-rule="evenodd" clip-rule="evenodd" d="M139.886 158.938C139 158.938 138.17 158.596 137.477 158.007H137.478C138.172 158.595 139.001 158.937 139.887 158.937C139.92 158.937 139.954 158.937 139.988 158.936C140.348 158.925 140.696 158.859 141.028 158.742C141.028 158.742 141.027 158.743 141.027 158.744C140.695 158.859 140.347 158.927 139.986 158.937C139.952 158.938 139.919 158.938 139.886 158.938Z" fill="#371A45"/>
<path fill-rule="evenodd" clip-rule="evenodd" d="M139.886 158.937C139.001 158.937 138.172 158.595 137.478 158.007C136.426 157.115 135.687 155.658 135.538 153.971C135.526 153.834 135.518 153.695 135.514 153.556C135.496 152.876 135.57 152.222 135.73 151.616C136.221 154.029 137.948 155.799 139.962 155.799C139.995 155.799 140.029 155.798 140.063 155.797C141.912 155.746 143.446 154.211 143.997 152.104C144.077 152.488 144.127 152.889 144.137 153.3C144.151 153.768 144.119 154.223 144.046 154.659C143.716 156.631 142.55 158.208 141.028 158.742C140.696 158.859 140.348 158.925 139.988 158.936C139.954 158.937 139.92 158.937 139.886 158.937Z" fill="#198A54"/>
<path fill-rule="evenodd" clip-rule="evenodd" d="M135.514 153.556C135.519 153.763 135.535 153.966 135.561 154.167C135.964 151.77 137.604 149.958 139.616 149.901C141.835 149.837 143.729 151.924 144.041 154.673C144.118 154.23 144.15 153.773 144.137 153.3C144.049 150.26 142.046 147.849 139.665 147.919C137.284 147.992 135.426 150.512 135.514 153.556Z" fill="white"/>
<path fill-rule="evenodd" clip-rule="evenodd" d="M139.764 148.921C139.741 148.921 139.717 148.922 139.694 148.923C138.856 148.946 138.066 149.407 137.469 150.218C136.817 151.102 136.478 152.277 136.515 153.526C136.588 156.01 138.135 157.984 139.958 157.934C140.795 157.91 141.585 157.449 142.183 156.639C142.834 155.754 143.173 154.579 143.136 153.33C143.1 152.082 142.693 150.929 141.99 150.084C141.365 149.332 140.577 148.921 139.764 148.921ZM139.888 159.939C137.015 159.939 134.616 157.12 134.512 153.584C134.462 151.89 134.939 150.273 135.855 149.029C136.826 147.711 138.168 146.962 139.634 146.919C141.103 146.886 142.484 147.545 143.531 148.803C144.518 149.991 145.09 151.578 145.139 153.272C145.189 154.965 144.712 156.584 143.796 157.827C142.826 159.145 141.483 159.894 140.017 159.937C139.974 159.939 139.931 159.939 139.888 159.939Z" fill="#371A45"/>
<path fill-rule="evenodd" clip-rule="evenodd" d="M149.036 168.844C148.488 168.844 148.041 168.403 148.034 167.854L147.94 159.544C147.914 157.276 149.018 155.162 150.895 153.888C152.246 152.971 153.021 151.449 152.97 149.817L152.599 138.11C152.582 137.557 153.016 137.094 153.569 137.076C154.125 137.071 154.585 137.493 154.602 138.046L154.973 149.754C155.047 152.076 153.943 154.241 152.02 155.546C150.702 156.442 149.925 157.928 149.943 159.521L150.039 167.831C150.045 168.384 149.601 168.837 149.048 168.844H149.036Z" fill="#371A45"/>
<path fill-rule="evenodd" clip-rule="evenodd" d="M99.6287 146.333C99.6287 146.333 95.5895 146.865 95.4609 151.59C95.3228 156.672 98.6428 157.665 98.6428 157.665C98.6428 157.665 106.567 162.22 124.338 159.357C124.338 159.357 128.83 152.498 122.788 148.748C122.788 148.748 109.125 150.889 99.6287 146.333Z" fill="white"/>
<path fill-rule="evenodd" clip-rule="evenodd" d="M113.255 160.303C110.562 160.303 108.262 160.112 106.337 159.834C108.261 160.112 110.56 160.302 113.251 160.302C115.138 160.302 117.217 160.209 119.495 159.986V159.987C117.22 160.209 115.141 160.303 113.255 160.303Z" fill="#A79BAD"/>
<path fill-rule="evenodd" clip-rule="evenodd" d="M119.495 159.987V159.986H119.497V159.987C119.496 159.987 119.497 159.987 119.495 159.987Z" fill="#371A45"/>
<path fill-rule="evenodd" clip-rule="evenodd" d="M122.16 159.679V159.678C122.869 159.583 123.595 159.477 124.338 159.357C124.338 159.357 124.956 158.413 125.425 157.034C124.956 158.413 124.338 159.358 124.338 159.358C123.595 159.478 122.869 159.584 122.16 159.679Z" fill="#A79BAD"/>
<path fill-rule="evenodd" clip-rule="evenodd" d="M119.497 159.987V159.986C120.357 159.902 121.243 159.801 122.16 159.678V159.679C121.245 159.801 120.356 159.903 119.497 159.987Z" fill="#371A45"/>
<path fill-rule="evenodd" clip-rule="evenodd" d="M125.427 157.03C125.427 157.03 125.428 157.028 125.428 157.026C125.428 157.028 125.427 157.03 125.427 157.03Z" fill="#A79BAD"/>
<path fill-rule="evenodd" clip-rule="evenodd" d="M96.5762 156.004C95.9329 155.082 95.4031 153.683 95.4594 151.591C95.4688 151.234 95.5021 150.904 95.5527 150.594C95.5028 150.904 95.471 151.235 95.4609 151.59C95.4045 153.682 95.9336 155.082 96.5762 156.004Z" fill="#371A45"/>
<path fill-rule="evenodd" clip-rule="evenodd" d="M125.569 151.96C125.435 151.6 125.261 151.244 125.039 150.896C125.261 151.244 125.435 151.6 125.569 151.96Z" fill="#CDC6D0"/>
<path fill-rule="evenodd" clip-rule="evenodd" d="M113.251 160.302C110.56 160.302 108.261 160.112 106.337 159.834C101.096 159.076 98.6436 157.665 98.6436 157.665C98.6436 157.665 97.4943 157.32 96.5763 156.004C95.9337 155.082 95.4045 153.682 95.4609 151.59C95.471 151.235 95.5028 150.904 95.5527 150.594C95.5592 150.558 95.565 150.523 95.5715 150.487C96.5155 152.213 97.9417 152.639 97.9417 152.639C97.9417 152.639 102.53 155.277 112.555 155.277C114.97 155.277 117.7 155.124 120.76 154.744C122.832 154.487 124.562 152.991 125.026 150.954C125.031 150.935 125.035 150.915 125.039 150.896C125.261 151.244 125.435 151.6 125.569 151.96C125.57 151.961 125.57 151.964 125.571 151.965C125.571 151.967 125.572 151.969 125.574 151.971C126.229 153.747 125.908 155.614 125.428 157.026C125.428 157.028 125.427 157.029 125.427 157.03C125.426 157.031 125.426 157.032 125.425 157.034C124.956 158.413 124.338 159.357 124.338 159.357C123.595 159.477 122.869 159.583 122.16 159.678C121.243 159.801 120.357 159.902 119.497 159.986H119.495C117.217 160.209 115.138 160.302 113.251 160.302Z" fill="#CDC6D0"/>
<path fill-rule="evenodd" clip-rule="evenodd" d="M99.4351 147.754C99.2775 147.754 99.1221 147.786 98.9804 147.85C97.5347 148.498 96.7765 149.768 96.7259 151.625C96.6153 155.691 98.9818 156.447 99.0057 156.454C99.0989 156.482 99.1886 156.52 99.2731 156.569C99.3411 156.607 106.749 160.644 122.896 158.298C123.318 158.237 123.673 157.971 123.847 157.587C124.811 155.459 125.43 152.482 122.906 150.386C122.663 150.183 122.33 150.09 121.993 150.129C118.897 150.495 108.154 151.41 99.9223 147.856V147.856C99.7647 147.788 99.5984 147.754 99.4351 147.754ZM113.225 161.57C103.714 161.57 98.9161 159.246 98.1209 158.822C97.3396 158.524 94.0499 156.943 94.1967 151.555C94.3007 147.739 96.59 146.149 97.9453 145.541C98.8799 145.122 99.9656 145.12 100.925 145.533V145.534C108.578 148.837 118.759 147.963 121.697 147.616C122.719 147.494 123.748 147.796 124.523 148.44C127.407 150.835 128 154.549 126.152 158.631C125.621 159.804 124.539 160.616 123.26 160.802C119.464 161.353 116.125 161.569 113.225 161.57Z" fill="#371A45"/>
<path fill-rule="evenodd" clip-rule="evenodd" d="M117.333 109.594L102.525 134.717L102.196 135.278C101.737 134.923 101.277 134.565 100.821 134.203C80.4815 118.215 62.2718 97.6834 59.9963 96.5255C53.3069 93.1245 47.8366 86.9558 47.3952 83.1754C46.5595 76.0482 56.2302 65.0242 57.8112 63.2764C57.9523 63.1209 58.0282 63.0378 58.0282 63.0378C58.0282 63.0378 49.6419 51.2796 55.1448 47.4338C60.7849 43.4938 74.2044 62.4299 75.1268 63.5626C76.0411 64.6909 77.6567 62.3988 79.8527 60.106C81.7754 58.0994 84.1434 56.0921 86.8743 56.3812C93.8497 57.1156 84.7145 72.1477 85.2349 73.7756C85.8428 75.6716 90.7198 82.2928 99.2074 91.5111C99.9996 92.3684 100.825 93.251 101.679 94.156C106.096 98.8226 111.339 104.051 117.333 109.594Z" fill="white"/>
<path fill-rule="evenodd" clip-rule="evenodd" d="M97.5571 129.858C91.4758 124.838 85.678 119.545 80.553 114.656C81.5809 114.066 83.0157 113.191 84.6667 112.04C87.8523 117.923 92.0447 124.014 97.5571 129.858ZM78.5349 112.718C74.4949 108.817 70.94 105.246 68.0862 102.379C63.4406 97.7131 61.5193 95.8004 60.602 95.3342C60.2659 95.1636 59.9334 94.9858 59.6058 94.8022C67.4133 94.0591 73.6803 84.2994 74.7306 79.5951C75.1701 84.8588 76.8658 96.5659 83.4082 109.624C81.2845 111.13 79.5136 112.173 78.5349 112.718Z" fill="#CDC6D0"/>
<path fill-rule="evenodd" clip-rule="evenodd" d="M102.196 136.613C101.911 136.613 101.623 136.522 101.38 136.334C87.274 125.441 74.0772 112.184 66.1924 104.264C63.0257 101.083 60.0346 98.0788 59.3843 97.7124C52.5648 94.2463 46.5871 87.7929 46.0663 83.3293C45.2279 76.1436 53.7528 65.8554 56.3389 62.92C54.8632 60.6445 51.2811 54.551 52.0486 50.0965C52.3249 48.4925 53.1094 47.2288 54.3802 46.3405C58.5726 43.4094 65.5542 48.5764 75.7202 62.1379C75.7751 62.2109 75.8257 62.2781 75.872 62.3403C76.3447 61.9579 77.082 61.1461 77.653 60.5173C79.9119 58.0322 83.0085 54.629 87.0145 55.0519C88.818 55.2413 89.7324 56.1802 90.182 56.9342C91.872 59.7699 90.1068 64.6223 87.8075 70.2048C87.2971 71.4444 86.6704 72.9667 86.5642 73.5204C87.6824 76.2491 98.5221 90.3792 118.24 108.611C118.783 109.112 118.816 109.957 118.315 110.499C117.814 111.041 116.969 111.073 116.427 110.573C96.7381 92.3691 85.0021 77.431 83.9627 74.1825C83.6786 73.2949 84.0942 72.2056 85.3368 69.1877C86.6278 66.0535 89.0298 60.2202 87.887 58.3025C87.7467 58.0676 87.4894 57.7886 86.734 57.7091C84.074 57.4279 81.6091 60.1378 79.6307 62.315C78.0911 64.0093 76.9707 65.2338 75.6349 65.1955C75.0371 65.1789 74.4877 64.8984 74.088 64.4054C74.0063 64.3049 73.8336 64.0758 73.582 63.7404C72.2607 61.9774 68.7491 57.2934 64.9145 53.4696C60.7061 49.2731 57.4245 47.4727 55.9109 48.5305C55.2373 49.0013 54.8353 49.6615 54.6821 50.5485C54.0567 54.17 57.672 60.2332 59.1177 62.2644C59.4858 62.7812 59.4395 63.4867 59.0068 63.9508C55.9141 67.2693 48.037 77.1642 48.7205 83.0192C49.0886 86.1751 54.0588 92.0084 60.602 95.3342C61.5193 95.8004 63.4406 97.7131 68.0863 102.379C75.9247 110.254 89.045 123.432 103.013 134.22C103.597 134.671 103.705 135.51 103.254 136.094C102.991 136.435 102.595 136.613 102.196 136.613Z" fill="#371A45"/>
<path fill-rule="evenodd" clip-rule="evenodd" d="M56.8633 94.68C56.8633 94.68 54.66 93.3385 52.3771 91.1562C49.7107 88.606 46.9357 84.908 47.4531 80.8565C48.4118 73.3455 58.0282 63.0378 58.0282 63.0378C60.8319 62.7704 64.5806 64.8037 67.829 67.6184C71.6065 70.8886 74.7068 75.2126 74.881 78.1972C75.1195 82.3289 66.838 96.5399 56.8633 94.68Z" fill="white"/>
<path fill-rule="evenodd" clip-rule="evenodd" d="M58.6645 94.847C58.071 94.847 57.4709 94.7935 56.8633 94.68C56.8633 94.68 54.66 93.3385 52.3771 91.1562C54.4863 90.7225 57.3156 89.4272 60.391 86.0479C66.744 79.0725 69.7683 73.8594 67.829 67.6184C71.6065 70.8886 74.7068 75.2126 74.881 78.1972C74.8839 78.2557 74.886 78.3164 74.886 78.3793C74.8839 82.4605 67.6757 94.847 58.6645 94.847Z" fill="#CDC6D0"/>
<path fill-rule="evenodd" clip-rule="evenodd" d="M56.3842 95.9269C56.296 95.8923 56.179 95.8294 56.1246 95.7939L56.0888 95.7715L56.0176 95.7267L55.8804 95.6385L55.6138 95.4622L55.0923 95.1044C54.748 94.8637 54.4126 94.6135 54.0787 94.3613C53.4145 93.8524 52.7688 93.3197 52.1437 92.7595C50.895 91.6376 49.7198 90.4095 48.7037 89.0123C47.6906 87.6215 46.8186 86.0479 46.3691 84.2632C46.144 83.3756 46.03 82.4417 46.0605 81.5013L46.1177 80.7987C46.1393 80.5652 46.1941 80.357 46.2316 80.1351L46.3581 79.4795C46.399 79.2597 46.4409 79.0407 46.5112 78.8376C47.4632 75.4757 49.1625 72.5988 50.9714 69.8563C52.8244 67.1291 54.8215 64.5818 57.0512 62.1263L57.0543 62.1234C57.2817 61.8726 57.5886 61.7331 57.9011 61.7078C59.2365 61.603 60.461 61.861 61.5763 62.234C62.6902 62.6186 63.7159 63.1267 64.6881 63.6956C66.629 64.8398 68.3631 66.2241 69.9533 67.7522C71.5385 69.2875 72.9907 70.9623 74.2065 72.8662C74.8093 73.8226 75.3543 74.8374 75.7577 75.9759C75.95 76.5505 76.1213 77.1483 76.1842 77.8155C76.229 78.1213 76.2275 78.5376 76.1965 78.86C76.1777 79.0226 76.1646 79.1947 76.1372 79.3494L76.0504 79.8084C75.7852 80.9989 75.3681 82.0492 74.9018 83.0742C74.4313 84.0934 73.8957 85.067 73.3094 86.0082C72.1384 87.8897 70.7614 89.6397 69.1661 91.2097C67.5744 92.7761 65.7269 94.1524 63.5981 95.1036C62.5298 95.5699 61.3841 95.9067 60.2008 96.0679L59.7569 96.1286L59.3078 96.1539C59.0081 96.1669 58.7089 96.193 58.4083 96.1705L57.9579 96.151C57.807 96.1438 57.6682 96.1431 57.4722 96.112C57.1074 96.0621 56.742 96 56.3842 95.9269ZM57.3394 93.431C57.5056 93.4303 57.6642 93.4404 57.8234 93.4628C57.8884 93.4787 58.0145 93.4801 58.1279 93.4845L58.4701 93.4989C58.6981 93.5206 58.927 93.4953 59.1555 93.4859L59.4987 93.4693L59.8408 93.4201C60.7523 93.2958 61.6566 93.0349 62.5283 92.6554C64.2667 91.8776 65.8787 90.7008 67.2961 89.3007C68.718 87.9034 69.9786 86.306 71.0419 84.595C71.5739 83.7406 72.0589 82.8573 72.4753 81.9559C72.8866 81.0589 73.2444 80.1257 73.4374 79.2489L73.4988 78.9287C73.5176 78.8231 73.5205 78.7299 73.5342 78.6301C73.5523 78.5253 73.5422 78.4516 73.5458 78.3678C73.5538 78.2926 73.5386 78.1907 73.5263 78.0924C73.4952 77.7049 73.3752 77.2763 73.2328 76.8505C72.9299 75.9925 72.4753 75.1273 71.9498 74.2967C70.8887 72.632 69.5536 71.0823 68.1007 69.6778C66.6434 68.2748 65.0431 67.0047 63.3357 66.0007C62.4835 65.5005 61.6024 65.0697 60.7147 64.7632C59.83 64.4632 58.9357 64.3078 58.1554 64.3678L59.0051 63.9493C57.9694 65.082 56.9431 66.3115 55.9699 67.5418C54.996 68.78 54.0702 70.0515 53.1889 71.3468C52.3215 72.6494 51.5073 73.9801 50.7909 75.3448C50.6062 75.6846 50.4567 76.0344 50.2873 76.3778L50.0398 76.8953C49.9603 77.0688 49.8981 77.2452 49.8262 77.4201C49.6907 77.7707 49.5383 78.1191 49.415 78.4711L49.092 79.5301C49.0289 79.7065 48.998 79.8821 48.9668 80.0578L48.8656 80.584C48.8362 80.7575 48.7857 80.9389 48.772 81.1051L48.7307 81.6017C48.7108 82.2675 48.7906 82.9412 48.9596 83.6083C49.2922 84.9456 49.9892 86.2431 50.8639 87.4394C51.7359 88.6407 52.789 89.7481 53.9275 90.7702C54.4974 91.2813 55.0904 91.7706 55.7004 92.2376C56.0069 92.4696 56.3152 92.6988 56.6286 92.9185L57.0996 93.2416L57.3349 93.397L57.4511 93.4715L57.5072 93.5069L57.535 93.5242C57.502 93.5025 57.4063 93.4527 57.3394 93.431Z" fill="#371A45"/>
<path fill-rule="evenodd" clip-rule="evenodd" d="M78.31 115.691C77.8192 115.691 77.3465 115.42 77.113 114.951C76.7849 114.29 77.0537 113.488 77.7144 113.159C77.8691 113.082 93.2338 105.308 98.4837 91.8689C98.7519 91.1815 99.5268 90.8425 100.214 91.11C100.902 91.3788 101.241 92.1537 100.972 92.8411C95.3408 107.256 79.5714 115.22 78.9028 115.552C78.7127 115.647 78.5095 115.691 78.31 115.691Z" fill="#371A45"/>
<path fill-rule="evenodd" clip-rule="evenodd" d="M94.6217 66.5335L96.9637 67.4225C97.3851 67.5823 97.8557 67.3705 98.0154 66.9498L108.733 38.7181C108.893 38.2972 108.681 37.8264 108.26 37.6666L105.918 36.7775C101.502 35.1011 96.5632 37.322 94.887 41.7379L89.6616 55.5022C87.9853 59.918 90.2059 64.8572 94.6217 66.5335Z" fill="white"/>
<path fill-rule="evenodd" clip-rule="evenodd" d="M94.7091 66.3036L97.0511 67.1927C97.3439 67.304 97.6742 67.1558 97.7855 66.8623L108.503 38.6308C108.614 38.3375 108.466 38.008 108.173 37.8965L105.831 37.0076C101.548 35.3814 96.7425 37.5432 95.1168 41.8251L89.8914 55.5897C88.2657 59.8718 90.427 64.6779 94.7091 66.3036ZM97.2535 67.7225C97.1263 67.7225 96.9991 67.6994 96.8769 67.6524L94.5349 66.7633C89.9991 65.0415 87.7099 59.9506 89.4317 55.4148L94.6571 41.6505C95.4912 39.4533 97.1306 37.7125 99.2746 36.7487C101.418 35.7846 103.808 35.7129 106.006 36.5473L108.348 37.4364C108.612 37.5372 108.823 37.735 108.939 37.9936C109.055 38.2521 109.063 38.5405 108.963 38.8055L98.2452 67.0373C98.1448 67.3018 97.9467 67.5122 97.6886 67.6286C97.5491 67.6907 97.4017 67.7225 97.2535 67.7225Z" fill="#371A45"/>
<path fill-rule="evenodd" clip-rule="evenodd" d="M96.2683 65.6935L95.1082 65.2533C91.4051 63.8474 89.5365 59.6911 90.9425 55.9887L92.4966 51.8934C93.1977 54.6276 94.9557 57.052 97.487 58.541C97.3504 59.1475 97.2246 59.7569 97.1104 60.3648C96.7259 62.1285 96.4454 63.9067 96.2683 65.6935Z" fill="#CDC6D0"/>
<path fill-rule="evenodd" clip-rule="evenodd" d="M95.1081 65.2533L96.9318 65.9451L107.255 38.7502L105.432 38.0579C103.638 37.3768 101.687 37.435 99.9366 38.2223C98.1866 39.0092 96.8479 40.4303 96.1678 42.224L90.9424 55.9887C89.5364 59.6911 91.405 63.8474 95.1081 65.2533ZM97.2506 68.8451C96.994 68.8451 96.7323 68.7995 96.4779 68.7034L94.1359 67.8136C89.0211 65.8721 86.4391 60.1313 88.3813 55.0165L93.6067 41.2516C95.5483 36.137 101.289 33.5552 106.404 35.497L108.746 36.386C109.873 36.814 110.441 38.0783 110.013 39.2045L99.2955 67.4363C98.9651 68.308 98.1324 68.8451 97.2506 68.8451Z" fill="#371A45"/>
<path fill-rule="evenodd" clip-rule="evenodd" d="M202.035 73.266L199.693 72.3769C199.272 72.2171 198.801 72.4289 198.642 72.8496L187.924 101.082C187.764 101.502 187.975 101.973 188.397 102.133L190.739 103.022C195.155 104.698 200.093 102.477 201.77 98.0615L206.995 84.2972C208.672 79.8814 206.45 74.9422 202.035 73.266Z" fill="white"/>
<path fill-rule="evenodd" clip-rule="evenodd" d="M199.404 72.5699C199.324 72.5699 199.244 72.5865 199.17 72.6197C199.031 72.6819 198.926 72.7947 198.872 72.9371L188.154 101.169C188.1 101.311 188.105 101.465 188.167 101.604C188.229 101.743 188.342 101.848 188.484 101.903L190.826 102.792C192.9 103.58 195.157 103.512 197.181 102.602C199.204 101.692 200.752 100.049 201.54 97.974L206.765 84.2097C207.553 82.1352 207.485 79.8785 206.575 77.8553C205.665 75.8313 204.022 74.2837 201.947 73.4958L199.605 72.6067C199.54 72.5822 199.471 72.5699 199.404 72.5699ZM193.778 103.829C192.723 103.83 191.667 103.637 190.651 103.252L188.309 102.363C188.044 102.263 187.834 102.065 187.718 101.806C187.602 101.547 187.593 101.259 187.694 100.994L198.411 72.7622C198.512 72.4976 198.71 72.2872 198.968 72.1709C199.226 72.0545 199.515 72.0458 199.78 72.147L202.122 73.0361C206.658 74.7579 208.947 79.8489 207.225 84.3847L202 98.1489C201.166 100.346 199.526 102.087 197.382 103.051C196.23 103.569 195.005 103.829 193.778 103.829Z" fill="#371A45"/>
<path fill-rule="evenodd" clip-rule="evenodd" d="M193.777 102.213C192.916 102.213 192.054 102.056 191.225 101.741L189.921 101.246C191.447 99.226 192.836 97.0777 194.068 94.8152C194.861 94.9945 195.659 95.0812 196.449 95.0812C198.427 95.0812 200.353 94.5369 202.021 93.5401L200.489 97.575C199.808 99.3691 198.47 100.79 196.72 101.577C195.779 102 194.779 102.213 193.777 102.213Z" fill="#CDC6D0"/>
<path fill-rule="evenodd" clip-rule="evenodd" d="M189.401 101.049L191.225 101.741C193.019 102.422 194.97 102.364 196.72 101.577C198.47 100.79 199.808 99.3691 200.489 97.575L205.715 83.8107C207.121 80.1084 205.251 75.952 201.549 74.5468L199.725 73.8544L189.401 101.049ZM193.778 104.954C192.589 104.954 191.397 104.737 190.252 104.302L187.91 103.413C187.365 103.206 186.932 102.799 186.693 102.267C186.454 101.734 186.437 101.141 186.644 100.595L197.361 72.3631C197.568 71.8181 197.975 71.3859 198.507 71.1466C199.04 70.9066 199.633 70.8893 200.179 71.0967L202.521 71.9858C204.999 72.9262 206.962 74.7753 208.049 77.1924C209.136 79.6096 209.216 82.3051 208.276 84.7829L203.05 98.548C202.11 101.025 200.261 102.988 197.844 104.075C196.543 104.66 195.162 104.954 193.778 104.954Z" fill="#371A45"/>
<path fill-rule="evenodd" clip-rule="evenodd" d="M160.946 126.087C160.811 125.61 160.671 125.133 160.524 124.658L160.523 124.655C160.439 124.385 160.191 124.186 159.893 124.179C159.887 124.179 159.882 124.179 159.877 124.179C159.853 124.179 159.828 124.181 159.805 124.183L159.459 120.769C160.172 120.612 160.883 120.439 161.587 120.253C162.49 121.62 163.443 123.085 164.422 124.615C163.285 125.152 162.125 125.643 160.946 126.087Z" fill="#CDC6D0"/>
<path fill-rule="evenodd" clip-rule="evenodd" d="M164.422 124.615C163.443 123.085 162.49 121.62 161.588 120.253C162.042 120.132 162.494 120.005 162.945 119.873C163.805 121.18 164.709 122.57 165.637 124.018C165.235 124.223 164.83 124.422 164.422 124.615Z" fill="#371A45"/>
<path fill-rule="evenodd" clip-rule="evenodd" d="M144.694 129.042C143.599 129.042 142.499 129.003 141.396 128.925C138.061 128.682 134.699 128.074 131.364 127.072C124.345 124.963 118.198 121.338 113.169 116.659L116.435 111.117C121.42 114.97 127.123 117.914 133.337 119.781C138.316 121.277 143.345 121.988 148.297 121.988C152.084 121.988 155.825 121.571 159.459 120.769L159.805 124.183C159.472 124.218 159.209 124.496 159.201 124.84C159.186 125.462 159.19 126.082 159.209 126.7C154.581 128.231 149.685 129.042 144.694 129.042Z" fill="#CDC6D0"/>
<path fill-rule="evenodd" clip-rule="evenodd" d="M159.209 126.7C159.19 126.082 159.186 125.462 159.201 124.84C159.209 124.496 159.472 124.218 159.805 124.183C159.828 124.181 159.853 124.179 159.877 124.179C159.882 124.179 159.887 124.179 159.893 124.179C160.191 124.186 160.439 124.385 160.523 124.655L160.524 124.658C160.671 125.133 160.811 125.61 160.946 126.087C160.665 126.192 160.384 126.295 160.101 126.395C159.805 126.5 159.508 126.601 159.209 126.7Z" fill="#371A45"/>
<path fill-rule="evenodd" clip-rule="evenodd" d="M113.169 116.659C108.466 112.289 104.743 106.996 102.207 101.164C101.339 99.1689 100.611 97.1131 100.029 95.0082C100.099 94.8622 100.169 94.714 100.237 94.5666C102.223 96.678 104.378 98.9029 106.692 101.218C109.498 104.965 112.773 108.286 116.435 111.117L113.169 116.659Z" fill="#CDC6D0"/>
<path fill-rule="evenodd" clip-rule="evenodd" d="M106.692 101.218C104.378 98.9029 102.223 96.678 100.237 94.5666C100.439 94.13 100.632 93.6869 100.814 93.2373C101.099 93.5409 101.387 93.8473 101.679 94.156C101.621 93.6616 101.558 93.1751 101.491 92.6973C101.799 93.3276 102.119 93.9529 102.454 94.5738C103.711 96.9129 105.13 99.1313 106.692 101.218Z" fill="#371A45"/>
<path fill-rule="evenodd" clip-rule="evenodd" d="M100.029 95.0082C99.7112 93.856 99.4365 92.6893 99.2074 91.5111C99.7293 92.0757 100.266 92.6518 100.814 93.2373C100.632 93.6869 100.439 94.13 100.237 94.5666C100.169 94.714 100.099 94.8622 100.029 95.0082Z" fill="#371A45"/>
<path fill-rule="evenodd" clip-rule="evenodd" d="M99.7509 55.3063C91.6927 82.1316 106.906 110.41 133.732 118.469C160.557 126.528 188.836 111.314 196.894 84.4888C204.953 57.6635 189.739 29.3845 162.914 21.3259C136.089 13.2673 107.81 28.4809 99.7509 55.3063Z" fill="white"/>
<path fill-rule="evenodd" clip-rule="evenodd" d="M148.256 19.4038C140.022 19.4038 131.867 21.4405 124.411 25.4514C112.539 31.8382 103.865 42.4661 99.9866 55.3772C96.1078 68.2878 97.4891 81.9364 103.876 93.8083C110.263 105.681 120.891 114.355 133.802 118.234C138.625 119.682 143.501 120.373 148.297 120.373C170.001 120.373 190.101 106.247 196.659 84.4179C204.665 57.7654 189.496 29.5682 162.843 21.5615C158.04 20.1186 153.134 19.4038 148.256 19.4038ZM148.297 120.865C143.453 120.865 138.533 120.169 133.661 118.705C120.624 114.789 109.892 106.029 103.443 94.0418C96.994 82.0542 95.5989 68.2726 99.5153 55.2355C103.432 42.1985 112.19 31.467 124.178 25.018C136.166 18.5687 149.948 17.1737 162.985 21.0903C189.897 29.1749 205.214 57.6469 197.129 84.5596C190.509 106.6 170.211 120.865 148.297 120.865Z" fill="#371A45"/>
<path fill-rule="evenodd" clip-rule="evenodd" d="M148.297 119.249C143.609 119.249 138.841 118.574 134.125 117.157C123.126 113.853 113.822 106.989 107.478 97.5981C113.699 103.671 122.893 110.084 134.65 113.927C141.285 116.096 148.049 116.946 154.309 116.945C158.505 116.945 162.472 116.563 166.019 115.942C160.43 118.096 154.429 119.249 148.297 119.249Z" fill="#CDC6D0"/>
<path fill-rule="evenodd" clip-rule="evenodd" d="M148.347 20.5463C127.126 20.5463 107.474 34.357 101.063 55.7003C97.2702 68.3239 98.6212 81.6682 104.866 93.2763C111.11 104.884 121.502 113.365 134.126 117.157C138.841 118.574 143.609 119.249 148.298 119.249C169.519 119.25 189.171 105.438 195.583 84.0948C203.411 58.0358 188.579 30.4661 162.52 22.6377C157.804 21.221 153.036 20.5463 148.347 20.5463ZM148.297 121.988C143.345 121.988 138.317 121.277 133.337 119.781C120.013 115.778 109.045 106.826 102.454 94.5738C95.8621 82.3224 94.4367 68.2365 98.439 54.9124C106.703 27.4064 135.803 11.7514 163.308 20.0142C190.813 28.277 206.469 57.3773 198.206 84.8827C191.439 107.409 170.693 121.988 148.297 121.988Z" fill="#371A45"/>
<path fill-rule="evenodd" clip-rule="evenodd" d="M99.5319 56.6002C96.5328 66.0607 96.8205 75.8176 99.769 84.749C101.979 91.4453 115.144 106.111 135.075 112.625C153.555 118.666 173.548 114.129 179.213 109.929C186.768 104.327 192.623 96.5168 195.622 87.0563C203.557 62.0215 185.337 44.8252 158.801 36.4146C132.266 28.004 107.466 31.5651 99.5319 56.6002Z" fill="#371A45"/>
<path fill-rule="evenodd" clip-rule="evenodd" d="M134.894 33.7001C130.442 33.7001 126.307 34.2262 122.564 35.2834C111.749 38.3382 104.439 45.6495 100.837 57.0144C98.0227 65.893 98.1036 75.3355 101.069 84.3196C103.038 90.283 115.535 104.798 135.5 111.323C153.515 117.212 173.002 112.83 178.397 108.829C185.997 103.194 191.502 95.5214 194.316 86.6428C204.073 55.8579 172.44 42.1746 158.388 37.7203C149.954 35.0473 142.018 33.7001 134.894 33.7001ZM154.309 116.945C148.05 116.945 141.285 116.096 134.65 113.927C113.507 107.017 100.652 91.793 98.4686 85.1783C95.32 75.6434 95.2361 65.6183 98.2258 56.1868C102.124 43.8882 110.062 35.9682 121.818 32.6472C132.068 29.7521 145 30.6037 159.215 35.1089C173.431 39.6147 184.491 46.3677 191.202 54.6384C198.899 64.1257 200.825 75.1714 196.928 87.4705C193.938 96.9021 188.095 105.048 180.029 111.029C176.135 113.917 166.126 116.945 154.309 116.945Z" fill="#371A45"/>
<path fill-rule="evenodd" clip-rule="evenodd" d="M115.692 67.09C115.489 67.09 115.285 67.077 115.082 67.051C112.523 66.7221 110.576 64.3823 109.916 61.269C109.957 59.0702 110.125 56.8619 110.424 54.6543C111.623 51.4144 114.103 49.2075 116.757 49.2075C116.96 49.2075 117.163 49.2203 117.367 49.2465C120.93 49.7039 123.306 54.0602 122.675 58.9769C122.08 63.6117 119.025 67.09 115.692 67.09Z" fill="#9B8DA2"/>
<path fill-rule="evenodd" clip-rule="evenodd" d="M118.459 81.6234C116.521 81.6234 114.937 79.804 114.912 77.5423C114.887 75.2675 116.45 73.4055 118.402 73.3845C118.413 73.3845 118.425 73.3845 118.436 73.3845C120.373 73.3845 121.957 75.2032 121.982 77.4649C122.007 79.7397 120.445 81.6017 118.493 81.6227C118.481 81.6227 118.469 81.6234 118.459 81.6234Z" fill="#9B8DA2"/>
<path fill-rule="evenodd" clip-rule="evenodd" d="M152.335 114.16C146.896 114 141.127 113.162 135.5 111.323C115.535 104.798 103.038 90.283 101.069 84.3196C98.1036 75.3355 98.0226 65.893 100.837 57.0144C103.552 48.4477 108.375 42.184 115.216 38.3107C114.226 40.3953 113.347 42.627 112.593 45.0133C111.579 48.2092 110.862 51.4316 110.424 54.6543C110.118 55.482 109.895 56.3776 109.774 57.3202C109.596 58.7058 109.657 60.0474 109.916 61.269C109.793 67.9177 110.829 74.4868 112.893 80.7379C115.495 88.6219 130.052 105.2 152.335 114.16Z" fill="#2A1A3B"/>
<path fill-rule="evenodd" clip-rule="evenodd" d="M154.227 115.549C148.102 115.549 141.498 114.729 135.075 112.627C115.146 106.111 101.979 91.4453 99.7676 84.749C96.8228 75.8183 96.5336 66.0622 99.532 56.6002H99.5356H99.532C99.5327 56.6002 99.5327 56.5995 99.5327 56.5988C102.721 46.5445 108.629 39.9495 116.279 36.2065C115.912 36.8907 115.557 37.5919 115.216 38.3107C108.375 42.184 103.552 48.4477 100.837 57.0144C98.0227 65.893 98.1036 75.3355 101.069 84.3196C103.038 90.283 115.535 104.798 135.5 111.323C141.127 113.162 146.896 114 152.335 114.16C153.524 114.638 154.737 115.095 155.97 115.527C155.394 115.542 154.812 115.549 154.227 115.549Z" fill="#2A1A3B"/>
<path fill-rule="evenodd" clip-rule="evenodd" d="M109.916 61.269C109.657 60.0474 109.596 58.7058 109.774 57.3202C109.895 56.3776 110.118 55.482 110.424 54.6543C110.125 56.8619 109.957 59.0702 109.916 61.269Z" fill="#6B6577"/>
<path fill-rule="evenodd" clip-rule="evenodd" d="M198.764 65.9277C198.23 65.9277 197.723 65.6126 197.504 65.0878C197.5 65.0791 197.493 65.061 197.489 65.0516L197.453 64.9447C193.186 50.6414 179.627 38.9162 160.252 32.7747C140.983 26.6676 123.196 28.225 111.453 37.0474L111.303 37.1599L111.129 37.228C110.431 37.5014 109.637 37.1632 109.356 36.4671C109.108 35.8524 109.334 35.1636 109.868 34.8123C122.328 25.4902 140.987 23.796 161.079 30.1632C181.329 36.5818 195.541 48.9683 200.074 64.1495C200.282 64.8239 199.944 65.5583 199.28 65.8272C199.111 65.8952 198.936 65.9277 198.764 65.9277Z" fill="#371A45"/>
<path fill-rule="evenodd" clip-rule="evenodd" d="M180.111 98.5299C180.111 98.5299 181.064 89.7011 178.764 74.75C175.781 55.3613 156.207 43.5092 156.207 43.5092C156.202 43.3828 156.36 43.3194 156.66 43.3194C159.607 43.3194 176.251 49.4657 185.503 62.2297C195.693 76.2903 180.111 98.5299 180.111 98.5299Z" fill="#9B8DA2"/>
</g>
<defs>
<clipPath id="clip0_101_2">
<rect width="163" height="220.466" fill="white" transform="translate(46 17.7672)"/>
</clipPath>
</defs>
</svg>
